<svg baseProfile="full" width="369" height="369" viewBox="0 0 369 369" xmlns="http://www.w3.org/2000/svg" xmlns:xlink="http://www.w3.org/1999/xlink"><path fill="#fff" d="M0 0h369v369H0z"/><defs><path id="a" d="M0 0h9v9H0z"/></defs><use x="36" y="36" xlink:href="#a"/><use x="36" y="45" xlink:href="#a"/><use x="36" y="54" xlink:href="#a"/><use x="36" y="63" xlink:href="#a"/><use x="36" y="72" xlink:href="#a"/><use x="36" y="81" xlink:href="#a"/><use x="36" y="90" xlink:href="#a"/><use x="36" y="108" xlink:href="#a"/><use x="36" y="135" xlink:href="#a"/><use x="36" y="162" xlink:href="#a"/><use x="36" y="171" xlink:href="#a"/><use x="36" y="189" xlink:href="#a"/><use x="36" y="216" xlink:href="#a"/><use x="36" y="234" xlink:href="#a"/><use x="36" y="243" xlink:href="#a"/><use x="36" y="270" xlink:href="#a"/><use x="36" y="279" xlink:href="#a"/><use x="36" y="288" xlink:href="#a"/><use x="36" y="297" xlink:href="#a"/><use x="36" y="306" xlink:href="#a"/><use x="36" y="315" xlink:href="#a"/><use x="36" y="324" xlink:href="#a"/><use x="45" y="36" xlink:href="#a"/><use x="45" y="90" xlink:href="#a"/><use x="45" y="135" xlink:href="#a"/><use x="45" y="144" xlink:href="#a"/><use x="45" y="153" xlink:href="#a"/><use x="45" y="171" xlink:href="#a"/><use x="45" y="180" xlink:href="#a"/><use x="45" y="189" xlink:href="#a"/><use x="45" y="198" xlink:href="#a"/><use x="45" y="207" xlink:href="#a"/><use x="45" y="234" xlink:href="#a"/><use x="45" y="252" xlink:href="#a"/><use x="45" y="270" xlink:href="#a"/><use x="45" y="324" xlink:href="#a"/><use x="54" y="36" xlink:href="#a"/><use x="54" y="54" xlink:href="#a"/><use x="54" y="63" xlink:href="#a"/><use x="54" y="72" xlink:href="#a"/><use x="54" y="90" xlink:href="#a"/><use x="54" y="108" xlink:href="#a"/><use x="54" y="117" xlink:href="#a"/><use x="54" y="135" xlink:href="#a"/><use x="54" y="144" xlink:href="#a"/><use x="54" y="171" xlink:href="#a"/><use x="54" y="189" xlink:href="#a"/><use x="54" y="198" xlink:href="#a"/><use x="54" y="207" xlink:href="#a"/><use x="54" y="252" xlink:href="#a"/><use x="54" y="270" xlink:href="#a"/><use x="54" y="288" xlink:href="#a"/><use x="54" y="297" xlink:href="#a"/><use x="54" y="306" xlink:href="#a"/><use x="54" y="324" xlink:href="#a"/><use x="63" y="36" xlink:href="#a"/><use x="63" y="54" xlink:href="#a"/><use x="63" y="63" xlink:href="#a"/><use x="63" y="72" xlink:href="#a"/><use x="63" y="90" xlink:href="#a"/><use x="63" y="108" xlink:href="#a"/><use x="63" y="135" xlink:href="#a"/><use x="63" y="153" xlink:href="#a"/><use x="63" y="180" xlink:href="#a"/><use x="63" y="189" xlink:href="#a"/><use x="63" y="198" xlink:href="#a"/><use x="63" y="234" xlink:href="#a"/><use x="63" y="243" xlink:href="#a"/><use x="63" y="270" xlink:href="#a"/><use x="63" y="288" xlink:href="#a"/><use x="63" y="297" xlink:href="#a"/><use x="63" y="306" xlink:href="#a"/><use x="63" y="324" xlink:href="#a"/><use x="72" y="36" xlink:href="#a"/><use x="72" y="54" xlink:href="#a"/><use x="72" y="63" xlink:href="#a"/><use x="72" y="72" xlink:href="#a"/><use x="72" y="90" xlink:href="#a"/><use x="72" y="135" xlink:href="#a"/><use x="72" y="162" xlink:href="#a"/><use x="72" y="198" xlink:href="#a"/><use x="72" y="207" xlink:href="#a"/><use x="72" y="216" xlink:href="#a"/><use x="72" y="270" xlink:href="#a"/><use x="72" y="288" xlink:href="#a"/><use x="72" y="297" xlink:href="#a"/><use x="72" y="306" xlink:href="#a"/><use x="72" y="324" xlink:href="#a"/><use x="81" y="36" xlink:href="#a"/><use x="81" y="90" xlink:href="#a"/><use x="81" y="108" xlink:href="#a"/><use x="81" y="117" xlink:href="#a"/><use x="81" y="144" xlink:href="#a"/><use x="81" y="153" xlink:href="#a"/><use x="81" y="180" xlink:href="#a"/><use x="81" y="189" xlink:href="#a"/><use x="81" y="198" xlink:href="#a"/><use x="81" y="225" xlink:href="#a"/><use x="81" y="270" xlink:href="#a"/><use x="81" y="324" xlink:href="#a"/><use x="90" y="36" xlink:href="#a"/><use x="90" y="45" xlink:href="#a"/><use x="90" y="54" xlink:href="#a"/><use x="90" y="63" xlink:href="#a"/><use x="90" y="72" xlink:href="#a"/><use x="90" y="81" xlink:href="#a"/><use x="90" y="90" xlink:href="#a"/><use x="90" y="108" xlink:href="#a"/><use x="90" y="126" xlink:href="#a"/><use x="90" y="144" xlink:href="#a"/><use x="90" y="162" xlink:href="#a"/><use x="90" y="180" xlink:href="#a"/><use x="90" y="198" xlink:href="#a"/><use x="90" y="216" xlink:href="#a"/><use x="90" y="234" xlink:href="#a"/><use x="90" y="252" xlink:href="#a"/><use x="90" y="270" xlink:href="#a"/><use x="90" y="279" xlink:href="#a"/><use x="90" y="288" xlink:href="#a"/><use x="90" y="297" xlink:href="#a"/><use x="90" y="306" xlink:href="#a"/><use x="90" y="315" xlink:href="#a"/><use x="90" y="324" xlink:href="#a"/><use x="99" y="108" xlink:href="#a"/><use x="99" y="126" xlink:href="#a"/><use x="99" y="162" xlink:href="#a"/><use x="99" y="171" xlink:href="#a"/><use x="99" y="207" xlink:href="#a"/><use x="99" y="234" xlink:href="#a"/><use x="99" y="243" xlink:href="#a"/><use x="108" y="36" xlink:href="#a"/><use x="108" y="45" xlink:href="#a"/><use x="108" y="63" xlink:href="#a"/><use x="108" y="90" xlink:href="#a"/><use x="108" y="99" xlink:href="#a"/><use x="108" y="144" xlink:href="#a"/><use x="108" y="153" xlink:href="#a"/><use x="108" y="162" xlink:href="#a"/><use x="108" y="171" xlink:href="#a"/><use x="108" y="207" xlink:href="#a"/><use x="108" y="216" xlink:href="#a"/><use x="108" y="261" xlink:href="#a"/><use x="108" y="270" xlink:href="#a"/><use x="108" y="279" xlink:href="#a"/><use x="108" y="297" xlink:href="#a"/><use x="108" y="306" xlink:href="#a"/><use x="108" y="324" xlink:href="#a"/><use x="117" y="36" xlink:href="#a"/><use x="117" y="72" xlink:href="#a"/><use x="117" y="99" xlink:href="#a"/><use x="117" y="117" xlink:href="#a"/><use x="117" y="126" xlink:href="#a"/><use x="117" y="135" xlink:href="#a"/><use x="117" y="180" xlink:href="#a"/><use x="117" y="189" xlink:href="#a"/><use x="117" y="198" xlink:href="#a"/><use x="117" y="207" xlink:href="#a"/><use x="117" y="216" xlink:href="#a"/><use x="117" y="234" xlink:href="#a"/><use x="117" y="261" xlink:href="#a"/><use x="117" y="306" xlink:href="#a"/><use x="126" y="36" xlink:href="#a"/><use x="126" y="63" xlink:href="#a"/><use x="126" y="72" xlink:href="#a"/><use x="126" y="90" xlink:href="#a"/><use x="126" y="99" xlink:href="#a"/><use x="126" y="117" xlink:href="#a"/><use x="126" y="126" xlink:href="#a"/><use x="126" y="135" xlink:href="#a"/><use x="126" y="189" xlink:href="#a"/><use x="126" y="198" xlink:href="#a"/><use x="126" y="207" xlink:href="#a"/><use x="126" y="225" xlink:href="#a"/><use x="126" y="243" xlink:href="#a"/><use x="126" y="252" xlink:href="#a"/><use x="126" y="261" xlink:href="#a"/><use x="126" y="288" xlink:href="#a"/><use x="126" y="297" xlink:href="#a"/><use x="135" y="108" xlink:href="#a"/><use x="135" y="135" xlink:href="#a"/><use x="135" y="144" xlink:href="#a"/><use x="135" y="180" xlink:href="#a"/><use x="135" y="198" xlink:href="#a"/><use x="135" y="225" xlink:href="#a"/><use x="135" y="243" xlink:href="#a"/><use x="135" y="252" xlink:href="#a"/><use x="135" y="270" xlink:href="#a"/><use x="135" y="279" xlink:href="#a"/><use x="135" y="288" xlink:href="#a"/><use x="135" y="315" xlink:href="#a"/><use x="144" y="63" xlink:href="#a"/><use x="144" y="90" xlink:href="#a"/><use x="144" y="99" xlink:href="#a"/><use x="144" y="108" xlink:href="#a"/><use x="144" y="126" xlink:href="#a"/><use x="144" y="135" xlink:href="#a"/><use x="144" y="144" xlink:href="#a"/><use x="144" y="153" xlink:href="#a"/><use x="144" y="171" xlink:href="#a"/><use x="144" y="180" xlink:href="#a"/><use x="144" y="189" xlink:href="#a"/><use x="144" y="198" xlink:href="#a"/><use x="144" y="216" xlink:href="#a"/><use x="144" y="243" xlink:href="#a"/><use x="144" y="252" xlink:href="#a"/><use x="144" y="270" xlink:href="#a"/><use x="144" y="279" xlink:href="#a"/><use x="144" y="297" xlink:href="#a"/><use x="144" y="306" xlink:href="#a"/><use x="144" y="315" xlink:href="#a"/><use x="144" y="324" xlink:href="#a"/><use x="153" y="36" xlink:href="#a"/><use x="153" y="45" xlink:href="#a"/><use x="153" y="81" xlink:href="#a"/><use x="153" y="135" xlink:href="#a"/><use x="153" y="153" xlink:href="#a"/><use x="153" y="162" xlink:href="#a"/><use x="153" y="180" xlink:href="#a"/><use x="153" y="207" xlink:href="#a"/><use x="153" y="261" xlink:href="#a"/><use x="153" y="270" xlink:href="#a"/><use x="153" y="279" xlink:href="#a"/><use x="153" y="288" xlink:href="#a"/><use x="153" y="306" xlink:href="#a"/><use x="153" y="315" xlink:href="#a"/><use x="162" y="36" xlink:href="#a"/><use x="162" y="63" xlink:href="#a"/><use x="162" y="72" xlink:href="#a"/><use x="162" y="81" xlink:href="#a"/><use x="162" y="90" xlink:href="#a"/><use x="162" y="99" xlink:href="#a"/><use x="162" y="108" xlink:href="#a"/><use x="162" y="126" xlink:href="#a"/><use x="162" y="135" xlink:href="#a"/><use x="162" y="162" xlink:href="#a"/><use x="162" y="171" xlink:href="#a"/><use x="162" y="198" xlink:href="#a"/><use x="162" y="225" xlink:href="#a"/><use x="162" y="234" xlink:href="#a"/><use x="162" y="243" xlink:href="#a"/><use x="162" y="261" xlink:href="#a"/><use x="162" y="279" xlink:href="#a"/><use x="162" y="297" xlink:href="#a"/><use x="162" y="324" xlink:href="#a"/><use x="171" y="135" xlink:href="#a"/><use x="171" y="144" xlink:href="#a"/><use x="171" y="162" xlink:href="#a"/><use x="171" y="180" xlink:href="#a"/><use x="171" y="189" xlink:href="#a"/><use x="171" y="198" xlink:href="#a"/><use x="171" y="207" xlink:href="#a"/><use x="171" y="216" xlink:href="#a"/><use x="171" y="225" xlink:href="#a"/><use x="171" y="243" xlink:href="#a"/><use x="171" y="261" xlink:href="#a"/><use x="171" y="279" xlink:href="#a"/><use x="171" y="288" xlink:href="#a"/><use x="171" y="297" xlink:href="#a"/><use x="171" y="306" xlink:href="#a"/><use x="171" y="315" xlink:href="#a"/><use x="180" y="36" xlink:href="#a"/><use x="180" y="45" xlink:href="#a"/><use x="180" y="54" xlink:href="#a"/><use x="180" y="63" xlink:href="#a"/><use x="180" y="90" xlink:href="#a"/><use x="180" y="108" xlink:href="#a"/><use x="180" y="117" xlink:href="#a"/><use x="180" y="126" xlink:href="#a"/><use x="180" y="153" xlink:href="#a"/><use x="180" y="162" xlink:href="#a"/><use x="180" y="171" xlink:href="#a"/><use x="180" y="207" xlink:href="#a"/><use x="180" y="216" xlink:href="#a"/><use x="180" y="234" xlink:href="#a"/><use x="180" y="270" xlink:href="#a"/><use x="180" y="297" xlink:href="#a"/><use x="180" y="324" xlink:href="#a"/><use x="189" y="45" xlink:href="#a"/><use x="189" y="63" xlink:href="#a"/><use x="189" y="99" xlink:href="#a"/><use x="189" y="108" xlink:href="#a"/><use x="189" y="144" xlink:href="#a"/><use x="189" y="153" xlink:href="#a"/><use x="189" y="162" xlink:href="#a"/><use x="189" y="198" xlink:href="#a"/><use x="189" y="207" xlink:href="#a"/><use x="189" y="216" xlink:href="#a"/><use x="189" y="225" xlink:href="#a"/><use x="189" y="234" xlink:href="#a"/><use x="189" y="252" xlink:href="#a"/><use x="189" y="261" xlink:href="#a"/><use x="189" y="306" xlink:href="#a"/><use x="189" y="315" xlink:href="#a"/><use x="189" y="324" xlink:href="#a"/><use x="198" y="45" xlink:href="#a"/><use x="198" y="54" xlink:href="#a"/><use x="198" y="90" xlink:href="#a"/><use x="198" y="99" xlink:href="#a"/><use x="198" y="108" xlink:href="#a"/><use x="198" y="126" xlink:href="#a"/><use x="198" y="180" xlink:href="#a"/><use x="198" y="216" xlink:href="#a"/><use x="198" y="225" xlink:href="#a"/><use x="198" y="270" xlink:href="#a"/><use x="198" y="288" xlink:href="#a"/><use x="198" y="297" xlink:href="#a"/><use x="198" y="306" xlink:href="#a"/><use x="198" y="315" xlink:href="#a"/><use x="198" y="324" xlink:href="#a"/><use x="207" y="36" xlink:href="#a"/><use x="207" y="54" xlink:href="#a"/><use x="207" y="63" xlink:href="#a"/><use x="207" y="72" xlink:href="#a"/><use x="207" y="81" xlink:href="#a"/><use x="207" y="99" xlink:href="#a"/><use x="207" y="108" xlink:href="#a"/><use x="207" y="117" xlink:href="#a"/><use x="207" y="153" xlink:href="#a"/><use x="207" y="162" xlink:href="#a"/><use x="207" y="171" xlink:href="#a"/><use x="207" y="180" xlink:href="#a"/><use x="207" y="216" xlink:href="#a"/><use x="207" y="243" xlink:href="#a"/><use x="207" y="261" xlink:href="#a"/><use x="207" y="270" xlink:href="#a"/><use x="207" y="315" xlink:href="#a"/><use x="207" y="324" xlink:href="#a"/><use x="216" y="36" xlink:href="#a"/><use x="216" y="45" xlink:href="#a"/><use x="216" y="54" xlink:href="#a"/><use x="216" y="63" xlink:href="#a"/><use x="216" y="81" xlink:href="#a"/><use x="216" y="90" xlink:href="#a"/><use x="216" y="99" xlink:href="#a"/><use x="216" y="117" xlink:href="#a"/><use x="216" y="126" xlink:href="#a"/><use x="216" y="135" xlink:href="#a"/><use x="216" y="144" xlink:href="#a"/><use x="216" y="162" xlink:href="#a"/><use x="216" y="171" xlink:href="#a"/><use x="216" y="189" xlink:href="#a"/><use x="216" y="198" xlink:href="#a"/><use x="216" y="207" xlink:href="#a"/><use x="216" y="216" xlink:href="#a"/><use x="216" y="225" xlink:href="#a"/><use x="216" y="234" xlink:href="#a"/><use x="216" y="243" xlink:href="#a"/><use x="216" y="297" xlink:href="#a"/><use x="216" y="306" xlink:href="#a"/><use x="216" y="315" xlink:href="#a"/><use x="216" y="324" xlink:href="#a"/><use x="225" y="36" xlink:href="#a"/><use x="225" y="45" xlink:href="#a"/><use x="225" y="63" xlink:href="#a"/><use x="225" y="108" xlink:href="#a"/><use x="225" y="126" xlink:href="#a"/><use x="225" y="153" xlink:href="#a"/><use x="225" y="162" xlink:href="#a"/><use x="225" y="171" xlink:href="#a"/><use x="225" y="180" xlink:href="#a"/><use x="225" y="189" xlink:href="#a"/><use x="225" y="198" xlink:href="#a"/><use x="225" y="216" xlink:href="#a"/><use x="225" y="225" xlink:href="#a"/><use x="225" y="279" xlink:href="#a"/><use x="225" y="288" xlink:href="#a"/><use x="225" y="324" xlink:href="#a"/><use x="234" y="63" xlink:href="#a"/><use x="234" y="72" xlink:href="#a"/><use x="234" y="81" xlink:href="#a"/><use x="234" y="90" xlink:href="#a"/><use x="234" y="99" xlink:href="#a"/><use x="234" y="126" xlink:href="#a"/><use x="234" y="144" xlink:href="#a"/><use x="234" y="180" xlink:href="#a"/><use x="234" y="189" xlink:href="#a"/><use x="234" y="198" xlink:href="#a"/><use x="234" y="207" xlink:href="#a"/><use x="234" y="225" xlink:href="#a"/><use x="234" y="234" xlink:href="#a"/><use x="234" y="243" xlink:href="#a"/><use x="234" y="252" xlink:href="#a"/><use x="234" y="261" xlink:href="#a"/><use x="234" y="279" xlink:href="#a"/><use x="234" y="288" xlink:href="#a"/><use x="243" y="36" xlink:href="#a"/><use x="243" y="45" xlink:href="#a"/><use x="243" y="54" xlink:href="#a"/><use x="243" y="99" xlink:href="#a"/><use x="243" y="117" xlink:href="#a"/><use x="243" y="126" xlink:href="#a"/><use x="243" y="135" xlink:href="#a"/><use x="243" y="144" xlink:href="#a"/><use x="243" y="171" xlink:href="#a"/><use x="243" y="189" xlink:href="#a"/><use x="243" y="207" xlink:href="#a"/><use x="243" y="225" xlink:href="#a"/><use x="243" y="234" xlink:href="#a"/><use x="243" y="252" xlink:href="#a"/><use x="243" y="261" xlink:href="#a"/><use x="243" y="270" xlink:href="#a"/><use x="243" y="279" xlink:href="#a"/><use x="243" y="288" xlink:href="#a"/><use x="243" y="306" xlink:href="#a"/><use x="243" y="315" xlink:href="#a"/><use x="243" y="324" xlink:href="#a"/><use x="252" y="45" xlink:href="#a"/><use x="252" y="72" xlink:href="#a"/><use x="252" y="81" xlink:href="#a"/><use x="252" y="90" xlink:href="#a"/><use x="252" y="99" xlink:href="#a"/><use x="252" y="108" xlink:href="#a"/><use x="252" y="126" xlink:href="#a"/><use x="252" y="144" xlink:href="#a"/><use x="252" y="153" xlink:href="#a"/><use x="252" y="189" xlink:href="#a"/><use x="252" y="207" xlink:href="#a"/><use x="252" y="234" xlink:href="#a"/><use x="252" y="252" xlink:href="#a"/><use x="252" y="261" xlink:href="#a"/><use x="252" y="270" xlink:href="#a"/><use x="252" y="279" xlink:href="#a"/><use x="252" y="288" xlink:href="#a"/><use x="252" y="315" xlink:href="#a"/><use x="261" y="144" xlink:href="#a"/><use x="261" y="171" xlink:href="#a"/><use x="261" y="180" xlink:href="#a"/><use x="261" y="189" xlink:href="#a"/><use x="261" y="207" xlink:href="#a"/><use x="261" y="234" xlink:href="#a"/><use x="261" y="252" xlink:href="#a"/><use x="261" y="288" xlink:href="#a"/><use x="261" y="324" xlink:href="#a"/><use x="270" y="36" xlink:href="#a"/><use x="270" y="45" xlink:href="#a"/><use x="270" y="54" xlink:href="#a"/><use x="270" y="63" xlink:href="#a"/><use x="270" y="72" xlink:href="#a"/><use x="270" y="81" xlink:href="#a"/><use x="270" y="90" xlink:href="#a"/><use x="270" y="108" xlink:href="#a"/><use x="270" y="117" xlink:href="#a"/><use x="270" y="126" xlink:href="#a"/><use x="270" y="162" xlink:href="#a"/><use x="270" y="171" xlink:href="#a"/><use x="270" y="180" xlink:href="#a"/><use x="270" y="189" xlink:href="#a"/><use x="270" y="225" xlink:href="#a"/><use x="270" y="243" xlink:href="#a"/><use x="270" y="252" xlink:href="#a"/><use x="270" y="270" xlink:href="#a"/><use x="270" y="288" xlink:href="#a"/><use x="270" y="306" xlink:href="#a"/><use x="279" y="36" xlink:href="#a"/><use x="279" y="90" xlink:href="#a"/><use x="279" y="117" xlink:href="#a"/><use x="279" y="126" xlink:href="#a"/><use x="279" y="135" xlink:href="#a"/><use x="279" y="144" xlink:href="#a"/><use x="279" y="153" xlink:href="#a"/><use x="279" y="162" xlink:href="#a"/><use x="279" y="198" xlink:href="#a"/><use x="279" y="234" xlink:href="#a"/><use x="279" y="243" xlink:href="#a"/><use x="279" y="252" xlink:href="#a"/><use x="279" y="288" xlink:href="#a"/><use x="279" y="297" xlink:href="#a"/><use x="279" y="306" xlink:href="#a"/><use x="279" y="315" xlink:href="#a"/><use x="288" y="36" xlink:href="#a"/><use x="288" y="54" xlink:href="#a"/><use x="288" y="63" xlink:href="#a"/><use x="288" y="72" xlink:href="#a"/><use x="288" y="90" xlink:href="#a"/><use x="288" y="126" xlink:href="#a"/><use x="288" y="144" xlink:href="#a"/><use x="288" y="162" xlink:href="#a"/><use x="288" y="171" xlink:href="#a"/><use x="288" y="180" xlink:href="#a"/><use x="288" y="189" xlink:href="#a"/><use x="288" y="198" xlink:href="#a"/><use x="288" y="207" xlink:href="#a"/><use x="288" y="234" xlink:href="#a"/><use x="288" y="252" xlink:href="#a"/><use x="288" y="261" xlink:href="#a"/><use x="288" y="270" xlink:href="#a"/><use x="288" y="279" xlink:href="#a"/><use x="288" y="288" xlink:href="#a"/><use x="288" y="315" xlink:href="#a"/><use x="288" y="324" xlink:href="#a"/><use x="297" y="36" xlink:href="#a"/><use x="297" y="54" xlink:href="#a"/><use x="297" y="63" xlink:href="#a"/><use x="297" y="72" xlink:href="#a"/><use x="297" y="90" xlink:href="#a"/><use x="297" y="108" xlink:href="#a"/><use x="297" y="117" xlink:href="#a"/><use x="297" y="126" xlink:href="#a"/><use x="297" y="135" xlink:href="#a"/><use x="297" y="144" xlink:href="#a"/><use x="297" y="171" xlink:href="#a"/><use x="297" y="180" xlink:href="#a"/><use x="297" y="189" xlink:href="#a"/><use x="297" y="216" xlink:href="#a"/><use x="297" y="243" xlink:href="#a"/><use x="297" y="261" xlink:href="#a"/><use x="297" y="279" xlink:href="#a"/><use x="297" y="297" xlink:href="#a"/><use x="297" y="306" xlink:href="#a"/><use x="297" y="315" xlink:href="#a"/><use x="306" y="36" xlink:href="#a"/><use x="306" y="54" xlink:href="#a"/><use x="306" y="63" xlink:href="#a"/><use x="306" y="72" xlink:href="#a"/><use x="306" y="90" xlink:href="#a"/><use x="306" y="117" xlink:href="#a"/><use x="306" y="153" xlink:href="#a"/><use x="306" y="162" xlink:href="#a"/><use x="306" y="171" xlink:href="#a"/><use x="306" y="180" xlink:href="#a"/><use x="306" y="198" xlink:href="#a"/><use x="306" y="216" xlink:href="#a"/><use x="306" y="279" xlink:href="#a"/><use x="306" y="288" xlink:href="#a"/><use x="306" y="297" xlink:href="#a"/><use x="306" y="324" xlink:href="#a"/><use x="315" y="36" xlink:href="#a"/><use x="315" y="90" xlink:href="#a"/><use x="315" y="108" xlink:href="#a"/><use x="315" y="135" xlink:href="#a"/><use x="315" y="153" xlink:href="#a"/><use x="315" y="189" xlink:href="#a"/><use x="315" y="198" xlink:href="#a"/><use x="315" y="207" xlink:href="#a"/><use x="315" y="234" xlink:href="#a"/><use x="315" y="243" xlink:href="#a"/><use x="315" y="261" xlink:href="#a"/><use x="324" y="36" xlink:href="#a"/><use x="324" y="45" xlink:href="#a"/><use x="324" y="54" xlink:href="#a"/><use x="324" y="63" xlink:href="#a"/><use x="324" y="72" xlink:href="#a"/><use x="324" y="81" xlink:href="#a"/><use x="324" y="90" xlink:href="#a"/><use x="324" y="108" xlink:href="#a"/><use x="324" y="117" xlink:href="#a"/><use x="324" y="126" xlink:href="#a"/><use x="324" y="135" xlink:href="#a"/><use x="324" y="189" xlink:href="#a"/><use x="324" y="207" xlink:href="#a"/><use x="324" y="225" xlink:href="#a"/><use x="324" y="234" xlink:href="#a"/><use x="324" y="243" xlink:href="#a"/><use x="324" y="252" xlink:href="#a"/><use x="324" y="297" xlink:href="#a"/><use x="324" y="315" xlink:href="#a"/></svg>